<svg xmlns="http://www.w3.org/2000/svg" viewBox="0 0 260 163" xmlns:v="https://vecta.io/nano"><path d="M21.15 162.94s-21.37-27.08.31-60.73C41.56 71 72.66 85.98 92.27 57.33c49.69-72.58 155.75-16.78 139.84 44.9-7.7 29.85 23.44 30.94 7.57 60.77l-218.53-.06z" fill="#eef1fb"/><g fill="#578cc1"><path d="M160.62,24.54l-6.55,12.43-3.36-1.22,1.09,3.32-6.57,19.79s-3.63-25.14,15.39-34.31Z"/><path d="M149.69 35.53s-7.24 26.71-7.94 52.2c0 0 6.01 2.09 15.45.44 9.49-1.67-7.51-52.63-7.51-52.63z"/></g><path d="M115 72.57c1.94-.04 4.68.2 5.59-.79 1.03-1.12 2.23-.96 2.23-.96l-.24-1.28-.29-1.53s-.11-.14-.51-.13c0 0-1.41.06-2.08-.18-1.64-.59-8.15 3.32-7.93 4.4.08.4 2.41.48 3.24.47z" fill="#eac7b0"/><path d="M149.51 35.01S138.5 57.74 135.1 60.18c-3.41 2.44-15.55 7.72-15.55 7.72s-.32.76-.02 1.86c.31 1.15.91 1.48.91 1.48s16.97-1.52 20.92-3.97c3.95-2.46 12.65-12.25 12.65-12.25l-4.5-20.01z" fill="#578cc1"/><path d="M182.72 162.46h6.51c.82-.45 1.55-1.46 1.78-2.98.32-2.1 2.67-3.24 3.18-4.96s-2.1-4.13-2.1-4.13l-.44-.56-.45-.58-4.32 1.02-.17 2.34-.02 3c.13 2.29-.64 4.75-2.67 5.2-1.5.33-1.44 1.22-1.3 1.66zm-37.8 0h14.9c.72-.87.45-4.1.34-5.15l-.04-.34s-5.09-4.07-5.79-.95c-.02.1-.05.19-.08.29-.88 2.91-4.83 4.24-7.11 4.61-1.48.24-2.03 1.01-2.23 1.55z" fill="#1c1c1c"/><path d="M147.76 79.32l1.68 21.22 2.86 38.73c.25 6.36 1.27 16.53 1.27 16.53s2.41 2.42 7.25 1.4c0 0 4.31-14.52 5.54-29.88l.06-.76 2.92-48.57-21.58 1.34z" fill="#3f4943"/><path d="M147.76 79.32l1.68 21.22 16.92 26.77.06-.76 2.92-48.57-21.58 1.34z" fill="#333a36"/><path d="M151.29 80.46s13.92 34.9 23.08 51.3l12.01 20.98s5.24-2.1 5.72-3.53c0 0-3.5-31.66-9.63-39.38-3.46-4.36-7.53-17.45-7.72-22.03s-1.24-13.64-1.24-13.64l-22.22 6.29z" fill="#3f4943"/><path d="M154.75 29.58c5.44 1.72 14.85-2.92 14.85-2.92s-5.02-3.76-4.75-11.59l-4.21 3.39-2.86 2.3s.01 1.36.32 3.74l.2 1.4c.06.4-.11.8-.46 1.01-1.98 1.23-3.11 2.66-3.11 2.66z" fill="#eac7b0"/><path d="M147.16 80.12c.16.14.35.22.57.22 2.04-.03 8 1.11 13.04.59 4.25-.41 8.01-1.67 12.05-3.48.54-.24 1.77-.9 1.74-1.5-.02-.66-.08-1.61-.17-2.81-.29-4.17-.78-11.34-.3-19.61a88.51 88.51 0 0 0 .14-4.57c.04-11.21-2.18-21.07-6.65-24.41 0 0-3.12 1.75-5.27 2.44-2.11.68-3.2.54-4.3-.19 0 0-2.13 1.06-3.05 2.05-2.11 2.3-3.76 5.36-4.85 9.74-.93 3.73-1.79 9.17-2.09 16.15l-.88 25.38z" fill="#fff"/><path d="M173.58 43.07l-5.99-18.53s-14.38 5.42-15.04 25.72c-.26 4.63-1.37 23.58.64 39.3 0 0 11.2 4.36 24.93-4.25l-4.54-42.25z" fill="#73a4f1"/><path d="M157.79 20.77s.01 1.36.32 3.74c3.17-.54 6.76-5.66 6.76-5.66-1.61-.47-3.02-.55-4.22-.38l-2.86 2.3z" fill="#dbc0b2"/><path d="M155.43 20.62s9.8 1.63 10.72-4.49 2.8-10.03-3.41-11.33c-6.22-1.3-7.79.85-8.59 2.82s-1.24 12.41 1.29 13z" fill="#eac7b0"/><rect x="172.25" y="82.96" width="29.77" height="18.32" rx="4.78" transform="matrix(.989999 -.141074 .141074 .989999 -11.12 27.32)" fill="#434443"/><path d="M174.41 89.51l1.25 8.77c.24 1.7 1.36 3.07 2.83 3.72a4.59 4.59 0 0 0 1.56.39h0c.34.03.69.02 1.04-.03l19.97-2.85c2.61-.37 4.45-2.81 4.07-5.43l-1.25-8.77a4.81 4.81 0 0 0-5.43-4.07l-6.88.98-.27-1.87a1.58 1.58 0 0 0-1.79-1.34l-.75.11-4.18.6-1.04.15c-.42.06-.79.28-1.04.62a1.59 1.59 0 0 0-.3 1.17l.27 1.87-3.98.57a3.4 3.4 0 0 0-.46.09h0a4.82 4.82 0 0 0-3.31 2.89h0c-.3.75-.41 1.59-.29 2.44zm16.19-7.16l-7.15 1.02-.27-1.87c-.05-.32.18-.62.5-.67l1.79-.26 3.29-.47.89-.13h.18c.25.04.45.24.49.5l.27 1.87z" fill="#2f3531"/><path d="M183.22 73.95s1.05 1.4 1.09 1.96c.28 3.79-1.45 4.31 3.03 6.42 0 0 1.91.73 1.95-.76.03-1.49-1.33-1.51-1.08-3.59.29-2.4.26-2.42-1.32-3.68l-1.04-1.72-2.63 1.37z" fill="#eac7b0"/><path d="M185.89 75.02c-1.69.33-3.52.2-3.52.2l-5.66-16.91c-.65-1.42-14.9-18.17-14.9-18.17l5.78-15.6s3.39 1.98 6.97 8.17c4.43 7.64 9.3 19.94 10.16 21.94 2.59 5.98 3.48 19.38 3.48 19.38s-1 .73-2.32.99z" fill="#73a4f1"/><path d="M166.16 15.54s-1.01-.17-.84-1.55c.16-1.39.16-3.2-.97-2.86s-1.18 1.24-1.64.71-.47-2.74-3.82-2.9c-3.35-.15-4.71 1.01-6.27.33-1.56-.69-1.64-3.04-1.64-3.04s.44.84 1.11 1.11c0 0-2.6-3.56.41-5.99s6.08-.84 7.82-.74c3.84.23 6.32.46 7.57 2.98s.74 9.52-1.73 11.95z" fill="#272b29"/><path d="M184.87 75.62s-1.01 1.05-1.08 1.49c-.2 1.41-.68 2.02-.44 2.17.49.32 1.14-.72 1.45-1.66s.07-2 .07-2z" fill="#eac7b0"/><path d="M167.59,24.54l-6.55,12.43-3.36-1.22,1.09,3.32-6.57,19.79s-3.63-25.14,15.39-34.31Z" fill="#578cc1"/><path d="M154.75 17.15s.38 1.01 1.34 1.04c.95.03 1.69-.9 1.69-.9s-2.07-.48-3.03-.14z" fill="#fff"/><rect x="96.44" y="90.36" width="30.09" height="18.52" rx="4.83" transform="matrix(.974213 -.225631 .225631 .974213 -19.61 27.73)" fill="#434443"/><path d="M121.35 90.32h0c-1.04-1.12-2.59-1.73-4.18-1.52h0l-.47.08-3.96.92-.43-1.86c-.1-.42-.35-.77-.71-1s-.79-.3-1.21-.2l-1.03.24-4.16.96-.75.17c-.86.2-1.4 1.06-1.2 1.92l.43 1.86-6.84 1.58c-2.6.6-4.23 3.22-3.63 5.82l2.02 8.72c.6 2.6 3.22 4.23 5.82 3.63l19.86-4.6c.35-.08.68-.2.99-.35h0a4.85 4.85 0 0 0 1.33-.94c1.15-1.15 1.7-2.84 1.31-4.53l-2.02-8.72c-.2-.85-.61-1.6-1.17-2.2zm-17.13-.5a.6.6 0 0 1 .28-.65c.05-.03.11-.05.17-.07l.88-.21 3.27-.76 1.78-.41a.61.61 0 0 1 .72.45l.43 1.86-7.11 1.65-.43-1.86z" fill="#2f3531"/><path d="M108.3 79.09s-.6 2.13-.39 2.81c1.4 4.6 3.81 7.61-2.68 6.83 0 0 .27-.27-.97-2.61-1.43-2.7-1.41-2.74-.12-4.94l.44-2.51 3.73.41zm8.17-5.48c-1.96-.12-4.35-.63-5.22-1.67-.99-1.18-1.97-1.49-1.97-1.49l.3-1.28.36-1.53s.12-.14.52-.11c0 0 1.54.35 2.11-.09s1.62-.17 2.26.25c.82.54 1.92.46 1.89.72 0 0-1.62.8-1.47.93 1.48 1.32 5.39 1.84 5.14 2.87-.1.41-3.08 1.46-3.92 1.41zM89.14 23.5v1.07s.28 3.33-3.82 3.82c-4.11.49-7.47.42-7.36-2.15l1.06-6.73c.01-.61-.03-1.26-.15-2l7.96-.16 2.34.38-.03 5.77z" fill="#ffdbac"/><path d="M89.17 17.74l-.03 5.77c-.85.39-1.8.63-2.87.63-3.66 0-6.02-2.68-7.26-4.63.01-.61-.03-1.26-.15-2l7.96-.16 2.34.38z" fill="#f1c27d"/><path d="M78.26 16.23c.92 4.97 7.33 4.8 10.1 4.49.78-.09 1.27-.19 1.27-.19.88-.23 1.37-1.62 1.6-3.43.45-3.59-.12-8.86-.73-10.21-.91-2.03-2.63-4.22-9.09-2.64s-4.34 5.61-3.16 11.97z" fill="#ffdbac"/><path d="M73.02 163h9.08c-.07-.51-.3-2.08-.72-3.52-.15-.5-.32-.99-.51-1.41-.88-1.9-6.49-.69-6.49-.69s-.52.48-.93 2.32c-.18.81-.34 1.89-.42 3.3zm27.45-3.1c.02 1.33.18 2.6.63 3.1h17.97c-.23-.7-.88-1.76-2.72-2.08-2.1-.37-5.36-1.46-7.27-3.63-.68-.77-1.19-1.69-1.41-2.75-.85-4.06-6.99 1.25-6.99 1.25s-.25 2.14-.21 4.13z" fill="#1c1c1c"/><path d="M88.52 119.77l.45 3.32c.57 11.14 9.38 36.62 10.95 37.21 2.44.92 6.28-1.04 8.28-1.68.83-.27 1.39-1.11 1.21-1.96-4.36-20.05-5.96-48.92-6.55-66.02-.29-8.61-1.77-14.56-1.77-14.56s-21.48-5.73-21.61 1.52c-.11 6.42 7.12 31.58 9.03 42.16z" fill="#3f4943"/><path d="M88.52 119.77l14.35-29.12c-.29-8.61-1.77-14.56-1.77-14.56s-21.48-5.73-21.61 1.52c-.11 6.42 7.12 31.58 9.03 42.16z" fill="#333a36"/><path d="M93.3 77.64l-11.36 82.3s-4.99 1.2-8.87.24c0 0-3.32-43.77-3.05-54.35.28-10.58-2.39-28.32.61-30.27 2.99-1.96 22.66 2.08 22.66 2.08z" fill="#3f4943"/><path d="M90.76 7.68c-1.77.56-5.52-.01-7.09 1.26s-.07 3.36-1.87 4.11h0c-.36.15-.78.05-1.03-.26-.5-.62-1.18-1.24-1.81-.98-.51.21-.54.88-.31 1.52.19.54.14 1.15-.19 1.63-.14.2-.24.43-.2.66.15.82.56 1.89.71 2.43l.04.57s-3-3.25-4.27-5.98c-.87-1.88-.85-8.89 3.39-10.94-.02-.01-.03-.03-.04-.05-.09-.16-.35-.13-.35-.13.37-.16.93-.06.93-.06-.01 0 .01-.04.06-.07.07-.5.57-.85.57-.85-.17.25-.24.49-.27.67C80.14.62 83.58-.68 86.3.5a22.7 22.7 0 0 0 4.67 1.45c.94.18 1.61 1.02 1.58 1.98-.05 1.35-.52 3.29-1.79 3.75z" fill="#272b29"/><path d="M76.99 27.67l2.61 56.1s21.82.36 21.2-4.58-7.87-49.8-7.87-49.8" fill="#e9f3fe"/><path d="M84.18 62.81s-1.11 14.98-3.24 24.39c0 0-12.73.68-15.76-4.24 0 0 2.39-20.24 2.39-24.35 0-1.44-.11-3.4-.29-5.6-.26-3.32-.68-7.17-1.07-10.52l-1.04-8.38 10.5-8.53 8.49 37.23zm25.27 17.73s-2.38 1.49-6.12.99c-1.36 3.34-4.57 4.47-4.57 4.17 0-.04-.72-6.31-1.57-13.7l-.26-2.24c0-.06-.02-.13-.02-.19l-.43-3.74-2.01-17.43c-2.23-13.67-4.12-22.7-4.12-22.7 4.76.5 7.98 2.19 9.26 4.41 3.8 6.59 6.56 23.07 8.17 35.41 0 .03 0 .06.01.09l.73 5.94c.01.11.03.23.04.34l.9 8.64z" fill="#73a4f1"/><path d="M87.36 17.05s.21.64 1.82.41c0 0 1.36-.2 1.26-.91 0 0-1.37-.4-3.08.5z" fill="#fff"/><path d="M76.37 25.52c-.03-.54 2.51-1.28 2.51-1.28s2.9 4.02 7.68 4.09c0 0-1.36 2.65-2.97 3.34 0 0-7.07-2.98-7.22-6.16zm10.19 2.72s2.53-1.5 2.54-3.13c0 0 1.64-.2 2.35.59 0 0 .6 2.79-.2 4.41 0 0-3.65-.56-4.7-1.87z" fill="#d9e9f9"/><path d="M84.84 28l3.43-.82s.45.04.44.6-.97 2.19-1.39 2.33c-.42.13-3.29-.97-2.48-2.1z" fill="#b6bdc6"/><g fill="#e9f3fe"><path d="M76.77 25.24c-.03-.54 1.69-1.64 1.69-1.64s3.32 3.88 8.1 3.95c0 0-1.36 2.65-2.97 3.34 0 0-6.67-2.47-6.82-5.65z"/><path d="M86.56 27.56s2.56-1.36 2.57-2.99c0 0 1.55.68 2.26 1.47 0 0 .66 1.76-.14 3.38 0 0-3.65-.56-4.7-1.87z"/></g><path d="M92.84 74.6c-.13 1.61-.75 3.11-1.73 4.22l-1.54 1.74c-.39.44-.99.38-1.3-.11l-1.86-2.91c-.5-.78-.73-1.77-.64-2.77l.87-10.64.48-8.58c.1-6.32-.73-26.45-.73-26.45l1.23.06s2.99 7.78 4.5 18.4c.37 2.61.65 5.4.77 8.28 0 0 .53 11.5-.06 18.77z" fill="#b6bdc6"/><path d="M92.84 74.6c-.13 1.61-.75 3.11-1.73 4.22l-1.54 1.74c-.39.44-.99.38-1.3-.11l-1.86-2.91c-.5-.78-.73-1.77-.64-2.77l.87-10.64c3.46-4.74 4.91-11.26 5.49-16.56.37 2.61.65 5.4.77 8.28 0 0 .53 11.5-.06 18.77z" fill="#9fa4aa"/><path d="M78.46 23.61s6.8 28.48 5.72 39.21c0 0-2.5-11.47-8.52-20.86 0 0 2.2-1.93 2.08-2.64 0 0-1.63-.48-3.21-.16 0 0 .17-12.28 1.16-13.58s2.77-1.98 2.77-1.98zm10.67.96c-1.02.08 6.74 27.83 7.31 36.73l-.61-20.45s-2.82-1.5-2.82-2.02 3.01-1.94 3.01-1.94-1.91-9.78-2.95-10.85c-1.04-1.08-3.94-1.46-3.94-1.46z" fill="#578cc1"/><path d="M103.34 82.66s-.47.64-.17 2.24.13 2.48.55 2.21c.41-.28 1.27-2.2 1.27-2.2l-1.65-2.25z" fill="#ffdbac"/><path d="M83.35 67.2c-7.92-1.18-13.21-8.58-16.06-14.18-.26-3.32-.68-7.17-1.07-10.52l1.85-5.29L83.34 67.2z" fill="#578cc1"/><path d="M108.55 71.9c-1.58.36-6.36 1.26-11.37.11l-.26-2.24c0-.06-.02-.13-.02-.19l.49-1.93 11.11 3.92c.01.11.03.23.04.34z" fill="#233862"/><path d="M75.69 25.58s-6.96.88-10.13 5.31c-3.18 4.43 3.64 28.57 17.8 36.31 6.81 3.72 26.45 4.56 26.45 4.56s1.08.11 1.51-2.07c.15-.76 0-2.05 0-2.05s-22.36-8.38-24.33-10c-1.97-1.61-11.3-32.06-11.3-32.06z" fill="#73a4f1"/><path d="M260 162.39v.16c0 .25-.19.45-.42.45H.42c-.23 0-.42-.2-.42-.45v-.16c0-.25.19-.45.42-.45h259.16c.23 0 .42.2.42.45z" fill="#e6e8ef"/></svg>