<svg xmlns="http://www.w3.org/2000/svg" xmlns:xlink="http://www.w3.org/1999/xlink" viewBox="0 0 290.76 176.15" xmlns:v="https://vecta.io/nano"><style><![CDATA[.f{fill:#ffdbac}.g{fill:#73a4f1}.h{fill:#3f4943}.i{fill:#a5a5a5}.j{fill:#1c1c1c}.k{fill:#578cc1}.l{fill:#b6bdc6}.m{fill:#8c8c8c}.n{fill:#f1c27d}.o{fill:#333a36}.p{fill:#848484}.q{fill:#272b29}]]></style><path d="M48.7,175.47S2.95,118.55,38.87,83.66c53.47-51.93,89.85,21.87,110.45-8.67,34.07-50.52,145.52-37.56,111.42,25.27-17.89,32.96,41.97,28.04,17.56,75.28l-229.61-.07Z" fill="#eef1fb"/><path d="M220.32 62.76l2.39-5.6.06-.13a1.45 1.45 0 0 0-.62-1.83l-4.43-2.49a1.43 1.43 0 0 1-.2-.14c-.43-.36-.63-.95-.47-1.5.92-3.25 1.19-6.64.77-9.99-.02-.14 0-.28.01-.41a1.46 1.46 0 0 1 .92-1.12l3.97-1.49a1.48 1.48 0 0 0 .93-1.22c.01-.16 0-.34-.04-.51l-1.55-6.02c-.19-.74-.92-1.22-1.69-1.09l-5.56.94a1.44 1.44 0 0 1-1.42-.6c-.47-.65-.96-1.29-1.49-1.9a25.58 25.58 0 0 0-3.21-3.13h0a1.46 1.46 0 0 1-.47-1.6l1.79-5.44.09-.27c.24-.7-.11-1.47-.8-1.77l-5.72-2.44c-.7-.29-1.51-.02-1.88.64l-2.77 4.93a1.45 1.45 0 0 1-1.54.72c-2.58-.48-5.23-.56-7.84-.22a1.45 1.45 0 0 1-1.53-.93l-1.78-4.7c-.27-.72-1.03-1.1-1.76-.91l-6.04 1.56a1.42 1.42 0 0 0-1.04 1.61l1.1 6.54c.1.55-.14 1.11-.59 1.45-.56.41-1.11.84-1.65 1.3a25.87 25.87 0 0 0-2.77 2.77 1.4 1.4 0 0 1-1.53.44l-6.54-2.16c-.72-.23-1.5.12-1.79.81l-2.46 5.74c-.26.61-.06 1.32.45 1.71.05.04.11.08.18.12l5.47 3.08c.51.28.81.84.74 1.41 0 .05 0 .1-.02.15-.03.15-.06.29-.08.45a25.03 25.03 0 0 0-.43 5.4c.03.6-.35 1.16-.93 1.37l-4.96 1.88c-.7.26-1.09 1.03-.9 1.76l.34 1.34 1.21 4.67a1.47 1.47 0 0 0 1.66 1.08l5.48-.93c.59-.1 1.16.18 1.46.69.78 1.35 1.7 2.65 2.76 3.88.78.91 1.63 1.76 2.51 2.53l-.38 1.14-1.54 4.69a1.4 1.4 0 0 0 .47 1.57 1.29 1.29 0 0 0 .32.19l5.75 2.47c.68.29 1.47 0 1.84-.63l1.89-3.37c.32-.57 1-.86 1.63-.69a25.44 25.44 0 0 0 8 .86c.64-.03 1.21.34 1.42.92l2.25 5.94c.26.66.96 1.03 1.66.86l6.11-1.58c.72-.19 1.18-.89 1.05-1.62l-1.15-6.8c-.1-.58.16-1.17.67-1.48a24.33 24.33 0 0 0 3.14-2.31 23.71 23.71 0 0 0 1.55-1.45c.39-.39.96-.53 1.48-.36l6.27 2.07a1.48 1.48 0 0 0 1.82-.81zm-16.3-26.25c2.82 4.14 3.17 8.83 1.62 12.42-5.47 12.59-22.42 11.46-26.26-1.51-.94-3.34-.54-7.05 1.86-10.67 5.63-8.39 17.38-8.15 22.78-.24zm-49.36 26.56l1.23-2.89.03-.07a.75.75 0 0 0-.32-.94l-2.28-1.28s-.07-.05-.11-.07c-.22-.19-.33-.49-.24-.77.47-1.68.61-3.42.4-5.15v-.21c.04-.26.22-.48.47-.58l2.05-.77c.27-.1.45-.35.48-.63 0-.08 0-.17-.02-.26l-.8-3.1c-.1-.38-.48-.63-.87-.56l-2.87.49c-.28.05-.57-.07-.73-.31-.24-.34-.49-.66-.77-.98-.51-.6-1.07-1.13-1.66-1.61h0a.75.75 0 0 1-.24-.83l.92-2.81.04-.14a.74.74 0 0 0-.41-.91l-2.95-1.26c-.36-.15-.78-.01-.97.33l-1.43 2.54c-.16.28-.48.43-.79.37a13.04 13.04 0 0 0-4.04-.12c-.34.04-.67-.16-.79-.48l-.92-2.42a.76.76 0 0 0-.91-.47l-3.12.8a.74.74 0 0 0-.54.83l.57 3.37a.78.78 0 0 1-.3.75l-.85.67a13.79 13.79 0 0 0-1.43 1.43.72.72 0 0 1-.79.22l-3.37-1.11c-.37-.12-.77.06-.92.42l-1.27 2.96c-.13.31-.03.68.23.88l.09.06 2.82 1.59c.26.15.42.43.38.73 0 .03 0 .05-.01.08-.02.08-.03.15-.04.23-.17.91-.25 1.85-.22 2.78.01.31-.18.6-.48.71l-2.56.97c-.36.14-.56.53-.47.9l.18.69.62 2.41c.1.38.47.62.85.55l2.82-.48a.72.72 0 0 1 .75.36c.4.69.88 1.37 1.42 2a13.31 13.31 0 0 0 1.29 1.31l-.19.59-.79 2.42c-.1.3 0 .62.24.81.05.04.11.07.17.1l2.97 1.27c.35.15.76 0 .95-.32l.97-1.74c.16-.29.52-.44.84-.36 1.35.37 2.74.51 4.12.44a.72.72 0 0 1 .73.47l1.16 3.06c.13.34.5.53.85.44l3.15-.82a.73.73 0 0 0 .54-.83l-.59-3.51c-.05-.3.08-.6.35-.76a12.01 12.01 0 0 0 1.62-1.19l.8-.75c.2-.2.49-.27.76-.19l3.23 1.07a.77.77 0 0 0 .94-.42zm-8.4-13.53c1.46 2.14 1.63 4.55.83 6.4-2.82 6.49-11.56 5.91-13.54-.78-.49-1.72-.28-3.64.96-5.5 2.9-4.32 8.96-4.2 11.75-.12z" class="l"/><path d="M50.05 158.34s-2.72-3.17-.17-5.18c0 0 1.86-1.13 3.38-1.04 0 0-2.15 3.61-1.45 3.96.7.36 2.11-4.19 2.11-4.19s4.23-.41 5.6.24c0 0-3.62 2.96-2.86 3.14s4.67-2.73 4.67-2.73 3.94.67 3.73 3.08c-.21 2.4-1.57 3.15-2.17 3.08-.6-.06-4.09-1.4-4.16-.91s2.03 2.09 3.5 2.16c0 0-2.78 3.06-4.63 2.18s-2-2.29-3.16-2.81-2.13-.52-1.66.01c.48.54 2.56 1.06 3.22 2.22s1.25 1.95-.66 1.66-5.02-1.69-5.15-3.29l-.14-1.6z" fill="#a3ceb6"/><g class="m"><path d="M63.11 155.69s-10.71-.41-13.07 2.65c0 0-.52 1.57-2.13 2.99l-.25.68s1.86-1.96 2.52-2.07c0 0-1.04-3.79 12.93-4.25z"/><path d="M47.91 161.33s-2.3 1.7-2.46 4.74l.42.04s.73-3.14 2.06-4.37-.02-.41-.02-.41z"/></g><path d="M40.55 154.35s4.32-2.42 2.3-5.7c0 0-1.61-2.02-3.34-2.53 0 0 .92 4.89 0 5.01s-.63-5.53-.63-5.53-4.55-2.19-6.33-2.02c0 0 2.82 4.78 1.9 4.66s-4.09-4.95-4.09-4.95-4.66-.86-5.41 1.9.46 4.15 1.15 4.32 5.13.12 5.01.69c-.12.58-3.11 1.5-4.78.98 0 0 1.84 4.55 4.26 4.32s3.17-1.73 4.66-1.84c1.5-.12 2.59.29 1.84.69s-3.28.13-4.49 1.16-2.19 1.66.06 2.12 6.28.17 7.08-1.55l.81-1.73z" fill="#a3ceb6"/><g class="m"><path d="M27.08,146.06s12.09,3.92,13.48,8.29c0,0-.06,1.96,1.15,4.2v.86s-1.27-2.94-1.96-3.34c0,0,2.71-3.8-12.67-10.02Z"/><path d="M41.7 158.56s1.86 2.83.8 6.28l-.48-.13s.47-3.8-.51-5.71.19-.44.19-.44z"/></g><path d="M47.42 151.02s-5.69-3.19-3.04-7.52c0 0 2.13-2.66 4.4-3.34 0 0-1.21 6.45 0 6.6s.84-7.29.84-7.29 6-2.88 8.35-2.66c0 0-3.72 6.3-2.51 6.15s5.39-6.53 5.39-6.53 6.15-1.14 7.14 2.5-.61 5.47-1.52 5.69c-.91.23-6.76.15-6.6.91.15.76 4.1 1.97 6.3 1.29 0 0-2.43 6-5.62 5.69-3.19-.3-4.18-2.28-6.15-2.43s-3.42.38-2.43.91 4.33.17 5.92 1.53 2.88 2.19-.08 2.8-8.27.23-9.34-2.05l-1.06-2.28z" fill="#93c1a6"/><g class="m"><path d="M65.19,140.09s-15.94,5.16-17.76,10.93c0,0,.08,2.58-1.52,5.54v1.14s1.67-3.87,2.58-4.4c0,0-3.57-5.01,16.7-13.21Z"/><path d="M45.91 156.56s-2.46 3.73-1.06 8.28l.63-.17s-.61-5.01.67-7.52c1.29-2.52-.25-.58-.25-.58z"/></g><path d="M47.23,174.69c6.16,0,11.15-4.99,11.15-11.15h-22.3c0,6.16,4.99,11.15,11.15,11.15Z" fill="#0a9d56"/><path d="M58.54 175.26H35.93c0-.76.62-1.38 1.38-1.38h19.86c.76 0 1.38.62 1.38 1.38h0z" fill="#bcd3cc"/><path d="M35.71 163.54h22.92v.34H35.71z" fill="#9fc1f4"/><path d="M253.28 75.99v.76s-.2 2.36 2.71 2.71c2.92.35 5.31.3 5.23-1.52l-.75-4.78c0-.43.02-.9.1-1.42l-5.65-.11-1.66.27.02 4.09z" class="f"/><path d="M253.26 71.9l.02 4.09c.6.28 1.28.45 2.04.45 2.6 0 4.28-1.9 5.15-3.28 0-.43.02-.9.1-1.42l-5.65-.11-1.66.27z" class="n"/><path d="M261.01 70.83c-.66 3.52-5.21 3.41-7.18 3.19l-.9-.13c-.62-.17-.97-1.15-1.14-2.43-.32-2.55.08-6.28.52-7.24.65-1.44 1.87-2.99 6.46-1.87s3.09 3.98 2.24 8.49z" class="f"/><path d="M264.74 175.15h-6.45c.05-.34.21-1.37.51-2.31a6.01 6.01 0 0 1 .37-.93c.63-1.25 4.61-.46 4.61-.46s.37.32.66 1.53c.13.53.24 1.24.3 2.17zm-19.5-2.03c-.02.88-.13 1.71-.45 2.03h-12.77c.16-.46.62-1.15 1.93-1.37 1.49-.24 3.81-.96 5.17-2.39.48-.51.84-1.11 1-1.81.6-2.67 4.97.82 4.97.82s.18 1.41.15 2.71z" class="j"/><path d="M253.73 144.26l-.32 2.35c-.41 7.9-6.66 25.97-7.78 26.39-1.73.65-4.46-.73-5.89-1.19-.59-.19-.99-.78-.86-1.39 3.1-14.22 4.24-34.7 4.65-46.82.21-6.11 1.26-10.32 1.26-10.32s15.26-4.06 15.35 1.08c.08 4.55-5.06 22.39-6.42 29.9z" class="h"/><path d="M253.73 144.26l-10.2-20.65c.21-6.11 1.26-10.32 1.26-10.32s15.26-4.06 15.35 1.08c.08 4.55-5.06 22.39-6.42 29.9z" class="o"/><path d="M250.33 114.38l8.07 58.37s3.54.85 6.3.17c0 0 2.36-31.04 2.17-38.55-.2-7.51 1.7-20.08-.43-21.47s-16.1 1.48-16.1 1.48z" class="h"/><path d="M250.9 60.86s2.02-.15 4.4-1.19c1.93-.84 4.37.08 5.16.5a1.19 1.19 0 0 0-.19-.48s.36.25.41.6c.04.03.05.05.04.05 0 0 .4-.07.66.04 0 0-.18-.03-.25.09 0 .01-.02.02-.03.03 3.01 1.45 3.29 6.21 2.32 7.31-1.17 1.32-2.57 4.31-2.57 4.31s-.51-.7-.3-1.87-.8-1.17-2.07-1.69c-1.27-.53-.21-2.01-1.33-2.91-1.11-.9-5.2-.37-5.15-1.06-1.52-.55-1.12-3.58-1.12-3.74z" fill="#233862"/><path d="M261.92 78.94l-1.86 39.79s-15.5.25-15.06-3.25 5.59-35.32 5.59-35.32l11.33-1.22z" fill="#e9f3fe"/><path d="M267.45 101.5c-.92 2.76.82 12.03 1.44 15.17l.23 1.06c-2.15 3.49-10.01 3.44-10.01 3.44-1.51-6.67-2.3-17.3-2.3-17.3l6.03-26.4 7.59 7s-.57 4.27-1.29 8.62c-.56 3.44-1.19 6.94-1.69 8.41z" class="g"/><path d="M254.55 71.41s-.15.45-1.3.29c0 0-.96-.14-.89-.65 0 0 .97-.29 2.19.36z" fill="#fff"/><path d="M245.84 79.51c-.37.37-10.72 10.41-12.72 14.33-2.04 3.99 9.33 11.92 9.33 11.92s.73.29 1.24.18c-.54 4.41-1.14 8.47-.78 10.21.64 3.14 3.55 4.19 3.55 3.95 0-.08 1.06-11.4 1.64-17.31 1.24-12.67 4.34-25.25 4.34-25.25-3.38.35-6.59 1.97-6.59 1.97zm-6.16 16.05s-.02-.05-.02-.06c0-.57 2.19-1.84 4.57-3.34l.05-.05c-.04 1.22-.04 2.42.04 3.53.13 2.07-.02 4.54-.27 7.06-1.13-1.76-4.15-6.5-4.37-7.15z" class="g"/><path d="M262.35 77.42c.02-.38-1.78-.9-1.78-.9s-2.06 2.85-5.46 2.9c0 0 .97 1.88 2.11 2.37 0 0 5.02-2.11 5.13-4.37zm-7.24 1.93s-1.8-1.07-1.81-2.22c0 0-1.16-.15-1.67.42 0 0-.43 1.98.14 3.13 0 0 2.59-.39 3.34-1.33z" fill="#d9e9f9"/><path d="M256.33 79.18l-2.44-.58s-.32.03-.31.42c0 .4.69 1.56.99 1.65s2.34-.69 1.76-1.49z" class="l"/><g fill="#e9f3fe"><path d="M262.07 77.22c.02-.38-1.2-1.16-1.2-1.16s-2.36 2.75-5.76 2.8c0 0 .97 1.88 2.11 2.37 0 0 4.74-1.75 4.85-4.01z"/><path d="M255.11 78.86s-1.82-.96-1.83-2.12c0 0-1.1.48-1.61 1.05 0 0-.47 1.25.1 2.4 0 0 2.59-.39 3.34-1.33z"/></g><path d="M250.34 106.31c.08.93.51 1.79 1.2 2.43l1.08.99c.27.25.7.22.93-.07l1.34-1.7a2.23 2.23 0 0 0 .47-1.61l-.55-6.15-.28-4.96c-.03-3.65.7-15.3.7-15.3l-.88.05s-2.18 4.52-3.32 10.67a41.35 41.35 0 0 0-.61 4.8s-.46 6.65-.08 10.85z" class="l"/><path d="M250.34 106.31c.08.93.51 1.79 1.2 2.43l1.08.99c.27.25.7.22.93-.07l1.34-1.7a2.23 2.23 0 0 0 .47-1.61l-.55-6.15c-2.42-2.72-3.41-6.48-3.78-9.54a41.35 41.35 0 0 0-.61 4.8s-.46 6.65-.08 10.85z" fill="#9fa4aa"/><path d="M241.72 106.41c0-1.01.89-1.83 1.9-1.68.28.04.53.16.7.39.69.92 1.35 3.59.12 3.72-.5.05-1.14-.3-1.63-.67-.5-.38-1.09-.98-1.09-1.6v-.15z" class="f"/><path d="M268.89 116.67c-2.22-2.31-6.06-6.85-5.93-10.58.18-5.22 6.18-13 6.18-13-.56 3.44-1.19 6.94-1.69 8.41-.92 2.76.82 12.03 1.44 15.17z" class="k"/><path d="M268.82 107.58s-1.6.8-2.57.4-2.11-.7-3.2.53c-1.08 1.23-1.31 2.09-1.08 2.54.23.46 2.76.28 3.18 0s1.08-.99 1.5-.86c1.16.34 2.14-.55 2.69-1.25.33-.42-.56-.63-.52-1.36z" class="f"/><path d="M262.84 77.47s6.36.7 7.87 3.47c1.5 2.77 9.31 13.98 9.05 18.64s-10.65 9.89-10.65 9.89-2.3-.97-2.34-2.02c-.03-1.04 7.18-7.29 6.75-8.45-.44-1.16-8.39-10.38-9.15-13.42s-1.53-8.11-1.53-8.11z" class="g"/><path d="M244.27 92.12l-.05.05c-2.37 1.49-4.57 2.76-4.57 3.34-.32-1.01 2.77-5.24 3.77-6.1 1.01-.88.85 2.72.85 2.72zm16.6-16.06s-4.83 20.2-4.06 27.81c0 0 1.78-8.13 6.05-14.79 0 0-1.56-1.37-1.48-1.87 0 0 1.16-.34 2.28-.11 0 0-.12-8.71-.82-9.63s-1.97-1.4-1.97-1.4zm-7.58.68c.1-.06-4.79 19.74-5.2 26.05l.44-14.5s2.01-1.06 2.01-1.43-2.14-1.38-2.14-1.38 1.36-6.93 2.1-7.7c.74-.76 2.8-1.04 2.8-1.04z" class="k"/><use xlink:href="#B" class="i"/><use xlink:href="#B" x="-12.9" class="p"/><path d="M179.33 175.53h.05c.28 0 .5-.23.5-.51l-.75-32.57-2.21-.26 1.89 32.83c.02.28.25.5.53.5zm-37.06-35.1v-22.32c0-3.93 3.18-7.11 7.11-7.11h16.08c3.93 0 7.11 3.18 7.11 7.11v23.17l-30.3-.85z" class="i"/><path d="M142.27 140.43h33.18v3.52h-30.52a2.66 2.66 0 0 1-2.66-2.66v-.86h0z" class="p"/><rect x="154.1" y="140.43" width="26.65" height="3.52" rx="1.33" class="i"/><path d="M178.26,134.87c-2.3,4.01-5.2,5.56-5.2,5.56h-12.05s19.01-8.62,17.26-5.56Z" class="o"/><path d="M169 165.89c-.31.36-.35.76-.2 1.19.29.79 1.24 1.68 2.34 2.57l.38.31c.03.03.06.05.08.08l.06.06c1.03.95.64 1.17 2.49 3.09 2.11 2.19 3.56 2.23 3.97 2.03.35-.17-.36-1.33-1.15-2.64a1.86 1.86 0 0 1-.11-.19l-.31-.52c-.92-1.57-.68-2.31-.47-4.65.18-1.9 2.96-10.63 2.96-10.63l-4.04-.7s-1.22 6.95-2.56 8.02c-.72.57-1.52.58-2.21 1-.05.03-.1.06-.14.09-.39.26-.79.53-1.11.89z" class="f"/><path d="M169 165.89c-.31.36-.35.76-.2 1.19.35.79 1.28 1.68 2.34 2.56l.37.32c.03.03.06.05.08.08l.06.06c1.03.95.64 1.17 2.49 3.09 2.11 2.19 3.56 2.23 3.97 2.03.35-.17-.36-1.33-1.15-2.64a8.93 8.93 0 0 1-3.76-2.77c-1.27-1.62-2.12-3.7-2.98-4.91l-.14.09c-.39.26-.79.53-1.11.89z" class="j"/><path d="M201.57 163.37c.25 1.25 2.03 1.04 4.01.55 1.99-.49 1.51.09 4.34-.22s3.68-1.37 3.77-1.79c.08-.37-1.32-.5-2.82-.68l-.57-.07c-1.69-.21-2.93-1.3-4.47-2.2-1.45-.85-3.63-4.31-3.63-4.31l-3.88.31 2.82 4.43c.46.79.44 1.83.38 2.64-.03.44-.06.89.03 1.33z" class="f"/><path d="M205.58 163.92c1.99-.49 1.51.09 4.34-.22s3.68-1.37 3.77-1.79c.08-.37-1.32-.5-2.82-.68v.03s-1.71 1.2-4.06 1.26c-1.92.05-3.95-.5-5.27-.48-.03.44-.06.89.03 1.33.25 1.25 2.03 1.04 4.01.55z" class="j"/><path d="M186.72 138.59l-3.62 9.75-4.73 12.73s-1.28.12-2.51-.23c-1.13-.33-2.43-1.18-2.43-1.18s1.31-13.67 3.76-21.51c.63-2.01 1.33-3.64 2.11-4.56 3.8-4.49 7.42 5.01 7.42 5.01z" class="o"/><path d="M183.03 123.11c-2.37-.77-9.14.22-15.94 1.55l-1.42-2.35-14.69-1.15s-4.85 10.75-2.19 17.6c.39 1.01 1.16 1.65 2.49 1.67h.21 11.58c7.3 0 15.46-5.02 16.51-5.23 1.73-.35 2.42 3.11 4.14 6.73 1.73 3.63 16.23 16.06 16.23 16.06s2.23.02 3.15-.32c.99-.37 1.35-.85 1.35-.85s-16.07-31.97-21.42-33.7z" class="h"/><path d="M165.09 79.54c-1.88-.99-4.74-1.12-5.21-1.18-5.57-.75-8.92 7.34-9.11 9.79-.36 4.52-2.75 5.21-6.12 8.03-6.74 5.67-4.77 12.26-1.08 14.71 2.21 1.47 6.11 0 6.11 0 .06.04 10.67-5.93 15.9-8.81 7.84-1.11 4.3-20.02-.49-22.54z" class="q"/><path d="M161.2 99.63s-2.57.9-4.31.13c-1.63-.72-2.87-3.41-2.85-3.41.74-.03 1.56-.68 2.19-4.95l.32.11 5.32 1.91-.63 3.33c-.21 1.36-.32 2.67-.03 2.86z" class="f"/><path d="M161.87 93.44l-.63 3.33c-3.06-.55-4.25-3.59-4.68-5.25l5.32 1.91z" class="n"/><path d="M162.66 95.13s-7.28-.98-6.6-5.5.2-7.7 4.87-7.26c4.68.43 5.32 2.29 5.46 3.86s-1.82 9.04-3.73 8.9z" class="f"/><g class="q"><path d="M166.12 83.75s-4.66 4.01-7.83 4.34c-3.17.32-4.37-.69-4.37-.69s1.87-1.55 2.99-4.05a2.22 2.22 0 0 1 1.84-1.31c2.26-.2 6.55-.28 7.37 1.72z"/><path d="M163.21 83.39s1.56 1.51 2.05 2.62c.47 1.08.62 3.66.24 4.68 0 0 2.43-4.72 1.05-7.02-1.46-2.43-3.34-.29-3.34-.29z"/></g><path d="M167.33 110.35c-.22 14.73-.06 11.65-1.67 13.05-.39.34-1.48.54-2.92.63-4.52.3-12.46-.44-12.76-1.28-1.04-2.89-.31-3.79-1.18-8.21a36.67 36.67 0 0 0-.33-1.53c-.72-3.04-1.43-4.07 1.14-8.95 2.33-4.42 4.75-8.01 4.97-7.88 6.15 3.65 6.65.58 6.65.58s6.2 6.4 6.1 13.58z" class="g"/><path d="M183.1 148.34l-4.73 12.73s-1.28.12-2.51-.23c-1.13-.33-2.43-1.18-2.43-1.18s1.31-13.67 3.76-21.51l5.91 10.2z" class="h"/><path d="M161.23 96.77s6.33 1.07 7.07 3.8l5.12 18.75s-3.22.58-4.71-.91-5.17-13.79-5.17-13.79l-2.31-7.85z" class="g"/><path d="M162.74 124.04c-4.52.3-12.46-.44-12.76-1.28-1.04-2.89-.31-3.79-1.18-8.21l2.18-6.14s-.36 6.83 1.65 8.63 8.25 3.47 9.23 4.97c.47.72.78 1.44.87 2.02z" class="k"/><path d="M157.56 121.16s4.46-.99 5.18-.6c.72.4 2.48 1.84 2.7 2.34s-1.6-.38-2.19-.54c-.38-.1-1.39.25-1.89.41-2.1.7-3.39.34-3.39.34l-.39-1.96z" class="f"/><path d="M154.58 96.18s-5.98.37-8.06 3.26c-2.92 4.07-8.7 21.4-5.39 23.71 3.73 2.6 16.99.68 16.99.68s.44-2.06-.17-3.06-10.59-2.61-11.05-3.07 5.76-8.98 5.76-10.36 1.92-11.16 1.92-11.16z" class="g"/><g class="f"><path d="M162.95 121.81s.93 1.2 1.24 1.35c.31.14.5.11.5.11l-.63-1.13-1.11-.32z"/><path d="M162.74 120.57l2.71 1.32s-.12.19-.45.17-1.18-.32-1.18-.32l-1.09-1.17z"/></g><path d="M164.19 125h21.48l6.46-16.06h-21.44l-6.5 16.06z" fill="#c1c1c1"/><path d="M185.92 124.37h-28.36v.63h28.11l.25-.63z" fill="#7f7f7f"/><rect x="63.36" y="109.79" width="2.96" height="33.4" rx="1.12" class="i"/><use xlink:href="#B" x="-91.81" class="p"/><g class="i"><path d="M100.42 175.53h.05c.28 0 .5-.23.5-.51l-.75-32.57-2.21-.26 1.89 32.83c.02.28.25.5.53.5z"/><path d="M100.26 140.43h-36.9v1.39c0 1.18.96 2.14 2.14 2.14h34.77c.87 0 1.58-.71 1.58-1.58v-.37c0-.87-.71-1.58-1.58-1.58z"/></g><path d="M118.74 168.57s-.54 6.75.67 6.84c.16.01 6.13.01 6.13.01l7.62-.04s-.05-1.84-2.28-2.23-6.64-2.26-7.99-5.21c-1.42-3.1-4.16.62-4.16.62z" class="j"/><path d="M72.87 131.57s.25 6.64 1.42 8.86h26.97s6.48.67 7.07 1.11c.75.55-2.6 6.02 9.93 27.39l6.13-.16s-6.41-34.66-7.55-35.54c-1.7-1.31-21.65-5.88-25.07-5.98s-18.9 4.31-18.9 4.31z" class="h"/><path d="M87.99 92.24c2.08 1.29 2.2 3.86 2.2 3.86-5.08 1.31-12.46-4.32-12.46-4.32s3.27-2.2 4.48-7.02c.06-.24.12-.49.17-.75.16-.81.26-1.69.27-2.64l2.33 2.09 3.88 3.47s-.09 1.44-.57 3.92a39.23 39.23 0 0 1-.29 1.39z" class="f"/><path d="M90.86 118.89c-.17 1.13.18 2.04.35 2.89.07.32.1.63.08.94-.28 3.13.84 3.53.49 4.54 0 0-1.19.7-3.38 1.53L85 129.9l-.21.06c-5.07 1.37-10.41 1.66-11.91 1.62-2.88-.08-3.46-7.37-2.39-16.56 1.66-14.32 3.91-21.26 9.84-26.27.37-.32.12.76 2.11 1.72a9.3 9.3 0 0 0 5.78.71l1.36 1.39c2.69 4.25 2.97 9.3 2.75 13.51-.29 5.32-.96 9.56-1.46 12.82z" class="g"/><path d="M88.85,86.93s.21-.22-.28,2.26c-4.29-1.24-5.69-3.43-6.27-4.88-.16-.41,1.6-.63,2.67-.85l3.88,3.47Z" class="n"/><path d="M90.85 86.94s-8.29 1.19-8.95-3.98-2.17-8.5 3.09-9.48 6.54.87 7.18 2.54.81 10.48-1.33 10.92z" class="f"/><g fill="#3a3a3a"><path d="M122.669 125.471l-.63-.197 5.192-16.597.63.197z"/><path d="M122.655 125.481l-18.239-.188.011-1.09 18.239.188z"/></g><path d="M79.26 73.59c-.07-.08-.22-.14-.56-.16 0 0 .28-.17.64-.18.08-.48.34-1.32 1.16-1.52 0 0-.44.23-.51.74.96-.97 3.01-1.67 8.67-1.18 7.46.65 4.96 5.41 3.99 5.97s-3.39-1.02-5.19-.89-2.16 2.73-2.78 3.08c-.61.35-.37-.28-1.19-.66s-.91.99-.68 1.88-.91 2.06-.91 2.06l-1.14-1.24c-1.14-1.24-2.18-6.49-1.65-7.6l.14-.3z" class="q"/><path d="M91.77 127.26s-1.19.7-3.38 1.53c-9.45-6.9-9.4-23.22-9.45-23.5l11.87 10.46.39 6.04c.07.32.1.63.08.94-.28 3.13.84 3.53.49 4.54z" class="k"/><g class="f"><path d="M108.88 119.58s.76.12 1.56-.25c.8-.38 3.57-1.57 4.09-1.4.52.16 2.22 1.12 2.62 1.3s1.11 1.12 1.11 1.12c-.29.3-1.32-.38-1.78-.37s-3.86 1.87-4.87 1.91-2.59-.17-2.59-.17l-.13-2.14z"/><path d="M115.05 119.73c0 .06 1.24 1.43 2.18.99l-1.03-1.02-1.15.02zm-4.6-.41s1.11-1.03 1.47-1.52c0 0 .22.1.23.29.02.31-.29.88-.29.88l-1.41.35z"/></g><path d="M88.67 94.96c-6.09-3.71-13.27 2.77-10.25 9.22 3.5 7.48 9.33 16.61 13.96 17.15 3.3.38 12.74 1.59 16.73.85 0 0 1.94.1.89-3.02 0 0-12.91-3.6-15.06-6.39-1.15-1.5-3.11-4.52-6.14-17.72-.01-.05-.09-.06-.14-.09z" class="g"/><path d="M252.29 175.53h.07c.38 0 .69-.32.68-.7l-1.04-45-3.06-.36 2.61 45.36c.02.39.35.7.74.7zm-150.36 0h-.07c-.38 0-.69-.32-.68-.7l1.04-45 3.06-.36-2.61 45.36c-.02.39-.35.7-.74.7z" fill="#b2b2b2"/><rect x="96.82" y="125.23" width="160.19" height="5.43" rx="2.05" fill="#d1d1d1"/><path d="M231.77 125.23H210.3l-6.46-16.06h21.44l6.49 16.06z" fill="#999"/><path d="M210.04 124.61h28.36v.62h-28.1l-.26-.62z" fill="#777"/><path d="M287.76 175.54v.16c0 .25-.19.45-.42.45H28.18c-.23 0-.42-.2-.42-.45v-.16c0-.25.19-.45.42-.45h259.16c.23 0 .42.2.42.45z" fill="#e6e8ef"/><defs ><path id="B" d="M156.63 175.53h-.05c-.28 0-.5-.23-.5-.51l.75-32.57 2.21-.26-1.89 32.83c-.02.28-.25.5-.53.5z"/></defs></svg>