<svg xmlns="http://www.w3.org/2000/svg" xmlns:xlink="http://www.w3.org/1999/xlink" viewBox="0 0 220.89 167" xmlns:v="https://vecta.io/nano"><style><![CDATA[.j{fill:none}.k{fill:#eac7b0}.l{stroke-miterlimit:10}.m{fill:#252a2d}.n{fill:#73a4f1}.o{fill:#272b29}.p{stroke-linecap:round}.q{stroke-linejoin:round}]]></style><path d="M30.46 166c-15.52-16.9-36.92-34.87-28.6-61.22 5.47-17.33 18.88-22.17 30.03-32.86 5.5-5.28 2.04-12.95 1.94-20.57-.23-19.52 21.55-34.66 41.57-34.34 21.69.34 31.08 22.15 49.27 23.32 7.14.11 13.54-4.08 19.86-7.41 18.73-9.87 48.45-3.58 49.95 20.29.39 12.89-14.28 33.62.42 40.4 11.71 5.4 23.55 7.39 25.66 26.72 2.76 25.29-11.84 39.17-30.88 45.68H30.46z" fill="#eef1fb"/><path d="M172.77 103.74l8.55 62.45m-34.14-61.05l-8.4 61.45" stroke="#a5a5a5" stroke-width="1.01" class="j l"/><rect x="138.93" y="99.49" width="42.7" height="6.49" rx="3.23" fill="#848484"/><path d="M99.2 138.16l-6.32 14.23 8.53 3.06 8.08-15.16-10.29-2.13z" class="k"/><path d="M92.45 150.08l-14.62 1.32c-1.07.09-1.95.91-2.11 1.99h0l25.95 10.65.73-10.03-9.94-3.92z" fill="#1c1c1c"/><path d="M101.05 166.81l-26.68-10.94 1.04-2.62 26.68 10.95-1.04 2.61z" fill="#303030"/><path d="M131.91,109.78l-24.4,40.65-14.53-6.89,21.09-42.33c2.39-5.66,9.24-7.81,14.38-4.52h0c4.35,2.78,5.85,8.48,3.47,13.08Z" fill="#333a36"/><path d="M178.24 81.7s6.17 11.97-3.04 17.44c-1.34.79-2.86 1.22-4.4 1.33l-39.41 6.96-13.71-18.52 29.4-7.14 31.16-.08z" fill="#3f4943"/><path d="M132.27 136.28l8.04 13.31 7.32-5.39-7.82-15.31-7.54 7.39z" class="k"/><path d="M138.18 148.64l-7.19 12.94c-.53.95-.36 2.14.43 2.88h0l23.35-15.64-7.77-6.27-8.82 6.08z" fill="#1c1c1c"/><path d="M156.69 150.92l-24 16.08-1.55-2.35 24.01-16.08 1.54 2.35z" fill="#303030"/><path d="M128.57,93.97l19.38,43.33-13.83,8.23-22.63-41.51c-3.27-5.2-1.16-12.12,4.44-14.55h0c4.73-2.05,10.22-.1,12.63,4.5Z" fill="#3f4943"/><path d="M134.35 106.9l-6.45-3.16" stroke="#323a35" stroke-width=".75" class="j l"/><path d="M114.3 69.68l6.81-.53-.21 6.89-5.89-.01-.71-6.35z" fill="#fcc3cb"/><path d="M114.81,69.68s-15.6-6.08-13.87,6.34h14.97l-1.11-6.34Z" fill="#ffc9bd"/><g class="n"><path d="M137.89,41.36s-7.03,14.65-8.54,29.65c-.17,1.68,1.52,3.35,2.83,4.41h0c2.95,2.38,7.9,0,9-3.46,0,0,8.5-28.18,7.58-28.83-.22-.15-10.87-1.77-10.87-1.77Z"/><path d="M133.44 65.76l-21.52-.55 1.61 11.05 21.53.11c.81.04 1.63-.14 2.34-.55 2.41-1.43 3.44-4.59 2.06-7.26h0c-1.14-2.21-3.62-3.37-6.02-2.81zm21.17-30.06l-14.52 3.93c-1.48.19-2.54 1.54-2.39 3.04l9.38 39.1s5.31 5.99 31.16-.08l-3.61-39.91c.18-1.54-1.71-3.95-3.23-4.12l-16.79-1.96z"/></g><path d="M143.25,64.96c.3,1.31-3-13.12-3.02-13.25" stroke="#6593d6" stroke-width=".76" class="j l"/><path d="M146.56 76.94h-24.59v-2.81h24.59c.77 0 1.39.63 1.39 1.4h0c0 .77-.62 1.4-1.39 1.4z" fill="#7f7f7f"/><path d="M125.21 76.94h-34.6c-1.88 0-3.52-1.26-4.03-3.09l-6.65-24.16c-.41-1.5.7-2.98 2.24-2.98h33.05c1.25 0 2.35.85 2.67 2.08l7.32 28.15z" fill="#c1c1c1"/><path d="M161.43,45.59s7.91,15.84,16.85,28.61c1,1.43,3.37,2.14,5.1,2.07h0c3.91-.17,5.57-4.43,4.09-7.89,0,0-12.63-29.3-14.37-29.78-.27-.07-11.67,6.99-11.67,6.99Z" class="n"/><g class="k"><path d="M152.39 70.6l6.8-.53-.21 6.88h-5.89l-.7-6.35z"/><path d="M152.89,70.6s-15.6-6.08-13.87,6.34h14.97l-1.11-6.34Z"/></g><path d="M181.69 65.61l-24.46.74.48 11.07 25.41-.54c3.62-.49 5.82-4.29 4.48-7.72h0c-.94-2.41-3.37-3.87-5.91-3.55z" class="n"/><path d="M166.15 51.71l6.47 14.18-15.39.47-.01 3.71m15.4-4.18l3.41 1.69" stroke="#6593d6" stroke-width=".76" class="j l"/><g class="o"><path d="M138.27 8.78c-.14.16-7.32 2.8.02 11.27l5.63-10.14-5.65-1.13z"/><path d="M141.5 10.64s-3.31 1.26-3.62 3.45l-.3-3.63s-2.25-4.63 1.49-7.31c4.55-3.26 8.96-.75 10.31.28 1.35 1.04 7.5 5.22 7.5 5.22s5.05 1.49.75 9.04l-3.73.52-2.21-5.56-5.62-1.92-4.57-.09z"/></g><path d="M143.47,21.59c.34,1.84-.87,3.62-2.69,3.96-1.82,.34-3.58-.88-3.91-2.72s.87-3.62,2.69-3.96c1.82-.34,3.58,.88,3.91,2.72Z" fill="#efb2a8"/><path d="M145.32,26.64l2.53,11.9c.59,3.35,2.76,3.21,5.8,2.64h0c2.6-.49,4.67-1.73,4.49-4.58l-2.3-12.93-10.53,2.98Z" class="k"/><path d="M147.21,35.54s7.92-3.57,7.34-9.63l-8.68,3.38,1.34,6.25Z" fill="#dd9790"/><path d="M150.94 30.5l-3.82.72c-3.9.73-7.63-1.95-8.22-5.92l-1.34-8.93c-.66-4.42 2.26-8.57 6.61-9.39h0c4.45-.83 9.5 1.99 10.33 6.49l1.35 10.19c.43 3.24-1.73 6.25-4.91 6.84z" class="k"/><path d="M152.92,19.82s-3.32-.35-1.73-6.44c0,0-7.84,1.63-9.79-3.97l3.58-3.77,8,1.43,2.66,5.09-.37,4.49-2.35,3.17Z" class="o"/><path d="M159.52 18.59c.34 1.84-.87 3.62-2.69 3.96a3.36 3.36 0 0 1-3.91-2.72c-.34-1.84.87-3.62 2.69-3.96a3.36 3.36 0 0 1 3.91 2.72z" fill="#ffc9bd"/><path d="M155.25,20.41s-.44-2.42,1.92-2.47" stroke="#131314" stroke-width=".45" class="j p q"/><path d="M141.4 9.41s-2.45.45-3.51 3.09l1.04-7.23 4.8-1.64 3.63 1.19-.62 4.64-5.33-.04z" class="o"/><path d="M145.88 38.07l5.13-1.52 6.65-.49 2.12.25s-.3 5.18-9.41 6.11c-7.96.81-4.49-4.35-4.49-4.35z" class="k"/><path d="M66.14 80.57l-13.55 86h4.07l19.23-87.65-9.75 1.65zm124.56 0l13.55 86h-4.07l-19.23-87.65 9.75 1.65z" fill="#b2b2b2"/><path d="M38.25 76.94h179.02v7.47H38.25z" fill="#999"/><g fill="#0a9d56"><path d="M77.84 63.67s2.01 12.45-7.28 12.91-7.09-13.03-7.09-13.03l14.38.12z"/><path d="M62.45 73.82c-2.42.07-4.45-1.86-4.52-4.31s1.84-4.5 4.26-4.57 4.45 1.86 4.52 4.31-1.84 4.5-4.26 4.57zm-.22-7.46c-1.65.05-2.95 1.45-2.9 3.11.05 1.67 1.43 2.98 3.08 2.93s2.95-1.45 2.9-3.11c-.05-1.67-1.43-2.98-3.08-2.93z"/></g><path d="M71.31 60.71s2.3-3.39-.53-5.44c-3.44-2.49 1.42-7.26 1.42-7.26m-5.08 3.07s-2.84 4.57.52 6.59c3.04 1.83.81 4.45.81 4.45" stroke="#c1c1c1" stroke-width=".25" class="j l"/><path d="M142.82 27.69s.21.64 1.82.41c0 0 1.36-.2 1.26-.91 0 0-1.37-.4-3.08.5z" fill="#fff"/><g fill="#b9c6bd"><rect x="53.07" y="6.26" width="43.45" height="33.99" rx="4.7" transform="matrix(-1 0 0 -1 149.59 46.51)"/><path d="M89.01 37.73l.02 6.96-7.86-6.96h7.84z"/></g><circle cx="55.14" cy="7.34" r="7.34" transform="matrix(.687468 -.726215 .726215 .687468 11.9 42.34)" fill="#0a9d56"/><path d="M51.87 7.71l2.75 2 3.27-4.15" stroke="#fff" stroke-width="1.75" class="j p q"/><path d="M67.18 21.83h-3.67c-.55 0-1.25.38-1.56.84l-2.43 3.67c-.3.46-.55 1.29-.55 1.84v1.9c0 .55.45 1 1 1h7.21v-9.25z" fill="#e6e8e8"/><path d="M67.18 18.84h20.39v12.24H67.18z" fill="#ededed"/><path d="M59.02 27.64a2.7 2.7 0 0 0-.06.54v1.15h.03a.85.85 0 0 0 .85-.85.84.84 0 0 0-.81-.85z" fill="#b7b7b7"/><path d="M61.3 26.22c-.28 0-.38-.21-.22-.47l1.45-2.35c.16-.26.52-.47.8-.47h2.72c.28 0 .51.25.51.57v2.16c0 .31-.23.57-.51.57h-4.74z" fill="#fff"/><path d="M59.4 31.08h28.17v1.1H59.4z" fill="#686868"/><path d="M65.86 26.22h.27v4.85h-.27zm-.24.6c0 .06-.05.11-.11.11h-1.09c-.06 0-.11-.05-.11-.11h0c0-.06.05-.11.11-.11h1.09c.06 0 .11.05.11.11h0z" fill="#ccc"/><path d="M86.22,31.75c0,1.28-1.03,2.31-2.29,2.31s-2.29-1.03-2.29-2.31,1.03-2.31,2.29-2.31,2.29,1.03,2.29,2.31Z" fill="#161819"/><path d="M85.92 31.75a2 2 0 0 1-1.99 2.01 2 2 0 0 1-1.99-2.01 2 2 0 0 1 1.99-2.01 2 2 0 0 1 1.99 2.01z" class="m"/><path d="M85.27,31.75c0,.74-.6,1.35-1.34,1.35s-1.34-.6-1.34-1.35,.6-1.35,1.34-1.35,1.34,.6,1.34,1.35Z" fill="#515456"/><use xlink:href="#B" class="m"/><path d="M66.82,31.75c0,1.28-1.03,2.31-2.29,2.31s-2.29-1.03-2.29-2.31,1.03-2.31,2.29-2.31,2.29,1.03,2.29,2.31Z" fill="#161819"/><path d="M66.52 31.75a2 2 0 0 1-1.99 2.01 2 2 0 0 1-1.99-2.01 2 2 0 0 1 1.99-2.01 2 2 0 0 1 1.99 2.01z" class="m"/><path d="M65.86,31.75c0,.74-.6,1.35-1.34,1.35s-1.34-.6-1.34-1.35,.6-1.35,1.34-1.35,1.34,.6,1.34,1.35Z" fill="#515456"/><use xlink:href="#B" x="-19.4" class="m"/><path d="M69.71 11c-1.39 0-2.51 1.12-2.51 2.51v.03a2.38 2.38 0 0 0 .16.85c.24.87.84 2.3 2.35 3.84 1.51-1.54 2.11-2.97 2.35-3.84a2.42 2.42 0 0 0 .16-.85v-.03c0-1.39-1.12-2.51-2.51-2.51zm0 3.87a1.36 1.36 0 1 1 0-2.72 1.36 1.36 0 1 1 0 2.72z" fill="#54585b"/><defs ><path id="B" d="M83.93 32.83c-.59 0-1.06-.48-1.06-1.07a1.07 1.07 0 0 1 1.06-1.07 1.07 1.07 0 1 1 0 2.14zm0-1.92a.84.84 0 0 0-.84.85c0 .47.38.85.84.85s.84-.38.84-.85-.38-.85-.84-.85z"/></defs></svg>